<svg height="512pt" viewBox="0 -36 512 511" width="512pt" xmlns="http://www.w3.org/2000/svg">
  <g fill-rule="evenodd">
  <path
    d="m40 400.496094h57.503906v-32h-57.503906zm-30 14.003906v-76.003906h492v76.003906c0 8.796875-7.199219 16-16 16h-460c-8.800781 0-16-7.203125-16-16zm217.25-14.003906h57.503906v-32h-57.503906zm93.621094-32v32h57.503906v-32zm93.625 0v32h57.503906v-32zm-280.871094 0v32h57.503906v-32zm0 0" fill="#808080"/><path d="m10 102.5h492v235.996094h-492zm0 0" fill="#c7ced1"/><path d="m502 102.5h-492v-76c0-8.800781 7.199219-16 16-16h460c8.800781 0 16 7.199219 16 16zm-181.128906-30h57.503906v-32h-57.503906zm93.625-32v32h57.503906v-32zm-187.246094 32h57.503906v-32h-57.503906zm-36.121094 0v-32h-57.503906v32zm-93.625 0v-32h-57.503906v32zm0 0" fill="#808080"/><path d="m264.601562 175.5c-11 0-20 9-20 20s9 20 20 20c-11 0-20 9-20 20s9 20 20 20h-34c0 27.515625-5.328124 67.097656-21.789062 82.996094-4.570312 4.414062-10 7.003906-16.410156 7.003906-5.527344 0-10.257813-2.78125-13.203125-7.003906-1.859375-2.667969-3.007813-5.910156-3.199219-9.398438l-4-73.597656c-8.796875 0-16-7.199219-16-16v-128c0-3.332031 1.03125-6.429688 2.792969-9 2.886719-4.21875 7.738281-7 13.207031-7h92.601562c-11 0-20 9-20 20s9 20 20 20c-11 0-20 9-20 20s9 20 20 20zm0 0" fill="#f4cdac"/><path d="m264.601562 215.5h51.398438c11 0 20 9 20 20s-9 20-20 20h-51.398438c-11 0-20-9-20-20s9-20 20-20zm0 0" fill="#f4cdac"/><path d="m336 215.5h-71.398438c-11 0-20-9-20-20s9-20 20-20h71.398438c11 0 20 9 20 20s-9 20-20 20zm0 0" fill="#f4cdac"/><path d="m326 175.5h-61.398438c-11 0-20-9-20-20s9-20 20-20h61.398438c11 0 20 9 20 20s-9 20-20 20zm0 0" fill="#f4cdac"/><path d="m316 135.5h-51.398438c-11 0-20-9-20-20s9-20 20-20h51.398438c6.046875 0 11.492188 2.722656 15.167969 7 3.007812 3.503906 4.832031 8.046875 4.832031 13 0 11-9 20-20 20zm0 0" fill="#f4cdac"/></g><path d="m97.503906 358.496094h-57.503906c-5.523438 0-10 4.480468-10 10v32c0 5.523437 4.476562 10 10 10h57.503906c5.523438 0 10-4.476563 10-10v-32c0-5.523438-4.476562-10-10-10zm-10 32h-37.503906v-12h37.503906zm0 0"/><path d="m191.128906 358.496094h-57.503906c-5.523438 0-10 4.480468-10 10v32c0 5.523437 4.476562 10 10 10h57.503906c5.523438 0 10-4.476563 10-10v-32c0-5.523438-4.476562-10-10-10zm-10 32h-37.503906v-12h37.503906zm0 0"/><path d="m284.753906 358.496094h-57.503906c-5.523438 0-10 4.480468-10 10v32c0 5.523437 4.476562 10 10 10h57.503906c5.523438 0 10-4.476563 10-10v-32c0-5.523438-4.476562-10-10-10zm-10 32h-37.503906v-12h37.503906zm0 0"/><path d="m378.375 358.496094h-57.503906c-5.523438 0-10 4.480468-10 10v32c0 5.523437 4.476562 10 10 10h57.503906c5.523438 0 10-4.476563 10-10v-32c0-5.523438-4.476562-10-10-10zm-10 32h-37.503906v-12h37.503906zm0 0"/><path d="m472 358.496094h-57.503906c-5.523438 0-10 4.480468-10 10v32c0 5.523437 4.476562 10 10 10h57.503906c5.523438 0 10-4.476563 10-10v-32c0-5.523438-4.476562-10-10-10zm-10 32h-37.503906v-12h37.503906zm0 0"/><path d="m40 30.5c-5.523438 0-10 4.480469-10 10v32c0 5.523438 4.476562 10 10 10h57.503906c5.523438 0 10-4.476562 10-10v-32c0-5.519531-4.476562-10-10-10zm47.503906 32h-37.503906v-12h37.503906zm0 0"/><path d="m133.625 82.5h57.503906c5.523438 0 10-4.476562 10-10v-32c0-5.519531-4.476562-10-10-10h-57.503906c-5.523438 0-10 4.480469-10 10v32c0 5.523438 4.476562 10 10 10zm10-32h37.503906v12h-37.503906zm0 0"/><path d="m284.753906 82.5c5.523438 0 10-4.476562 10-10v-32c0-5.519531-4.476562-10-10-10h-57.503906c-5.523438 0-10 4.480469-10 10v32c0 5.523438 4.476562 10 10 10zm-47.503906-32h37.503906v12h-37.503906zm0 0"/><path d="m378.375 82.5c5.523438 0 10-4.476562 10-10v-32c0-5.519531-4.476562-10-10-10h-57.503906c-5.523438 0-10 4.480469-10 10v32c0 5.523438 4.476562 10 10 10zm-47.503906-32h37.503906v12h-37.503906zm0 0"/><path d="m472 82.5c5.523438 0 10-4.476562 10-10v-32c0-5.519531-4.476562-10-10-10h-57.503906c-5.523438 0-10 4.480469-10 10v32c0 5.523438 4.476562 10 10 10zm-47.503906-32h37.503906v12h-37.503906zm0 0"/><path d="m486 .5h-351.902344c-5.519531 0-10 4.476562-10 10s4.480469 10 10 10h351.902344c3.253906 0 6 2.746094 6 6v66h-156.765625c-5.210937-4.367188-11.917969-7-19.234375-7h-144c-6.84375 0-13.074219 2.660156-17.722656 7h-134.277344v-66c0-3.253906 2.746094-6 6-6h39.132812c5.523438 0 10-4.476562 10-10s-4.476562-10-10-10h-39.132812c-14.335938 0-26 11.664062-26 26v388c0 14.335938 11.664062 25.996094 26 25.996094h460c14.335938 0 26-11.660156 26-25.996094v-388c0-14.335938-11.664062-26-26-26zm-150 185c5.511719 0 10 4.484375 10 10 0 5.511719-4.488281 10-10 10h-71.398438c-5.511718 0-10-4.488281-10-10 0-5.515625 4.488282-10 10-10zm-10 50c0 5.511719-4.488281 9.996094-10 9.996094h-51.398438c-5.515624 0-10-4.484375-10-9.996094 0-5.515625 4.484376-10 10-10h51.394532c5.519531 0 10.003906 4.484375 10.003906 10zm0-90c5.515625 0 10 4.484375 10 10 0 5.511719-4.484375 10-10 10h-61.398438c-5.511718 0-10-4.488281-10-10 0-5.515625 4.488282-10 10-10zm-61.398438-40h51.398438c2.949219 0 5.597656 1.289062 7.429688 3.328125.097656.121094.203124.230469.308593.347656 1.410157 1.722657 2.261719 3.925781 2.261719 6.324219 0 5.511719-4.484375 10-10 10h-51.398438c-5.515624 0-10-4.488281-10-10 0-5.515625 4.484376-10 10-10zm-28.285156 0c-1.109375 3.128906-1.714844 6.492188-1.714844 10 0 7.675781 2.902344 14.6875 7.664063 20-4.761719 5.308594-7.664063 12.320312-7.664063 20 0 7.675781 2.902344 14.6875 7.664063 20-4.761719 5.308594-7.664063 12.320312-7.664063 20 0 7.675781 2.902344 14.6875 7.664063 20-4.761719 5.308594-7.664063 12.320312-7.664063 20 0 3.503906.605469 6.867188 1.714844 9.996094h-5.714844c-5.523437 0-10 4.480468-10 10 0 39.324218-10.550781 80-28.199218 80-3.921875 0-6.234375-3.574219-6.417969-6.941406l-4-73.601563c-.289063-5.300781-4.671875-9.457031-9.984375-9.457031-3.25 0-6-2.746094-6-5.996094v-128c0-3.253906 2.75-6 6-6zm-90.316406 7v127c0 10.957031 6.816406 20.351562 16.429688 24.175781l3.523437 64.820313h-145.953125v-215.996094zm340 307.996094h-460c-3.253906 0-6-2.746094-6-5.996094v-66.003906h154.773438c4.691406 4.359375 10.875 7 17.628906 7 6.050781 0 13.191406-1.617188 20.125-7h189.472656c5.523438 0 10-4.476563 10-10 0-5.523438-4.476562-10-10-10h-174.511719c1.632813-3.476563 3.175781-7.363282 4.589844-11.734375 5.867187-18.121094 7.742187-38.125 8.300781-51.265625h75.621094c16.542969 0 30-13.457032 30-29.996094 0-3.90625-.757812-7.636719-2.121094-11.058594 12.730469-3.46875 22.121094-15.128906 22.121094-28.941406 0-10.609375-5.542969-19.945312-13.875-25.28125 2.460938-4.351562 3.875-9.371094 3.875-14.71875 0-10.609375-5.542969-19.945312-13.878906-25.28125 2.464844-4.351562 3.878906-9.371094 3.878906-14.71875 0-1.011719-.054688-2.011719-.152344-3h146.152344v215.996094h-21.035156c-5.523438 0-10 4.480468-10 10 0 5.523437 4.476562 10 10 10h21.035156v66.003906c0 3.25-2.746094 5.996094-6 5.996094zm0 0"/><path d="m93.882812 20.5c5.523438 0 10-4.476562 10-10s-4.476562-10-10-10h-.019531c-5.523437 0-9.988281 4.476562-9.988281 10s4.488281 10 10.007812 10zm0 0"/><path d="m442.214844 348.496094h.019531c5.523437 0 9.992187-4.476563 9.992187-10 0-5.519532-4.488281-10-10.011718-10-5.523438 0-10 4.480468-10 10 0 5.523437 4.476562 10 10 10zm0 0"/>
</svg>